<svg width="44" height="44" viewBox="0 0 44 44" fill="none" xmlns="http://www.w3.org/2000/svg">
<rect width="44" height="44" rx="15" fill="#FCF9F9" fill-opacity="0.1"/>
<rect x="0.5" y="0.5" width="43" height="43" rx="14.5" stroke="#FCF9F9" stroke-opacity="0.1"/>
<g opacity="0.8">
<path d="M33.1277 17.4115C33.114 16.4714 32.9398 15.5388 32.6065 14.6596C32.0231 13.1582 30.8352 11.971 29.3313 11.3899C28.4618 11.0633 27.5426 10.8882 26.6122 10.8683C25.4155 10.8149 25.0361 10.8 21.9986 10.8C18.961 10.8 18.5716 10.8 17.3837 10.8683C16.4545 10.8882 15.5353 11.0633 14.6658 11.3899C13.162 11.971 11.9728 13.1582 11.3907 14.6596C11.0635 15.5276 10.8869 16.4453 10.8695 17.373C10.816 18.5688 10.7998 18.9476 10.7998 21.9801C10.7998 25.0127 10.7998 25.4001 10.8695 26.5873C10.8881 27.5162 11.0635 28.4326 11.3907 29.3032C11.974 30.8033 13.162 31.9905 14.6671 32.5716C15.5328 32.9094 16.452 33.1006 17.385 33.1304C18.5828 33.1838 18.9622 33.2 21.9998 33.2C25.0374 33.2 25.4267 33.2 26.6146 33.1304C27.5438 33.1118 28.4631 32.9367 29.3338 32.6101C30.8377 32.0277 32.0256 30.8405 32.609 29.3404C32.9361 28.4711 33.1115 27.5547 33.1301 26.6245C33.1836 25.4299 33.1998 25.0511 33.1998 22.0174C33.1973 18.9848 33.1973 18.5999 33.1277 17.4115ZM21.9911 27.7149C18.8142 27.7149 16.2406 25.1455 16.2406 21.9739C16.2406 18.8023 18.8142 16.233 21.9911 16.233C25.1655 16.233 27.7416 18.8023 27.7416 21.9739C27.7416 25.1455 25.1655 27.7149 21.9911 27.7149ZM27.9705 17.3593C27.2279 17.3593 26.6296 16.7607 26.6296 16.0206C26.6296 15.2805 27.2279 14.6819 27.9705 14.6819C28.7106 14.6819 29.3102 15.2805 29.3102 16.0206C29.3102 16.7607 28.7106 17.3593 27.9705 17.3593Z" fill="#FCF9F9"/>
<path d="M21.9932 25.479C23.9282 25.479 25.4967 23.9104 25.4967 21.9755C25.4967 20.0406 23.9282 18.472 21.9932 18.472C20.0583 18.472 18.4897 20.0406 18.4897 21.9755C18.4897 23.9104 20.0583 25.479 21.9932 25.479Z" fill="#FCF9F9"/>
</g>
</svg>
