<svg aria-hidden="true" style="position: absolute; width: 0; height: 0; overflow: hidden;" version="1.1" xmlns="http://www.w3.org/2000/svg" xmlns:xlink="http://www.w3.org/1999/xlink">
<defs>
<symbol id="icon-logo" viewBox="0 0 36 32">
<path d="M36.054 31.964h-1.126v-1.142h1.126v1.142z"></path>
<path d="M34.928 31.964h-1.126v-1.142h1.126v1.142z"></path>
<path d="M30.424 31.964h-1.126v-1.142h1.126v1.142z"></path>
<path d="M29.298 31.964h-1.126v-1.142h1.126v1.142z"></path>
<path d="M28.172 31.964h-1.126v-1.142h1.126v1.142z"></path>
<path d="M21.416 31.964h-1.126v-1.142h1.126v1.142z"></path>
<path d="M14.66 31.964h-1.126v-1.142h1.126v1.142z"></path>
<path d="M7.904 31.964h-1.126v-1.142h1.126v1.142z"></path>
<path d="M6.778 31.964h-1.126v-1.142h1.126v1.142z"></path>
<path d="M5.652 31.964h-1.126v-1.142h1.126v1.142z"></path>
<path d="M1.148 31.964h-1.126v-1.142h1.126v1.142z"></path>
<path d="M36.054 30.823h-1.126v-1.142h1.126v1.142z"></path>
<path d="M31.55 30.823h-1.126v-1.142h1.126v1.142z"></path>
<path d="M30.424 30.823h-1.126v-1.142h1.126v1.142z"></path>
<path d="M29.298 30.823h-1.126v-1.142h1.126v1.142z"></path>
<path d="M21.416 30.823h-1.126v-1.142h1.126v1.142z"></path>
<path d="M20.29 30.823h-1.126v-1.142h1.126v1.142z"></path>
<path d="M15.786 30.823h-1.126v-1.142h1.126v1.142z"></path>
<path d="M14.66 30.823h-1.126v-1.142h1.126v1.142z"></path>
<path d="M6.778 30.823h-1.126v-1.142h1.126v1.142z"></path>
<path d="M5.652 30.823h-1.126v-1.142h1.126v1.142z"></path>
<path d="M4.526 30.823h-1.126v-1.142h1.126v1.142z"></path>
<path d="M32.676 29.681h-1.126v-1.142h1.126v1.142z"></path>
<path d="M31.55 29.681h-1.126v-1.142h1.126v1.142z"></path>
<path d="M30.424 29.681h-1.126v-1.142h1.126v1.142z"></path>
<path d="M21.416 29.681h-1.126v-1.142h1.126v1.142z"></path>
<path d="M20.29 29.681h-1.126v-1.142h1.126v1.142z"></path>
<path d="M19.164 29.681h-1.126v-1.142h1.126v1.142z"></path>
<path d="M16.913 29.681h-1.126v-1.142h1.126v1.142z"></path>
<path d="M15.786 29.681h-1.126v-1.142h1.126v1.142z"></path>
<path d="M14.66 29.681h-1.126v-1.142h1.126v1.142z"></path>
<path d="M5.652 29.681h-1.126v-1.142h1.126v1.142z"></path>
<path d="M4.526 29.681h-1.126v-1.142h1.126v1.142z"></path>
<path d="M3.4 29.681h-1.126v-1.142h1.126v1.142z"></path>
<path d="M33.802 28.54h-1.126v-1.142h1.126v1.142z"></path>
<path d="M32.676 28.54h-1.126v-1.142h1.126v1.142z"></path>
<path d="M31.55 28.54h-1.126v-1.142h1.126v1.142z"></path>
<path d="M25.92 28.54h-1.126v-1.142h1.126v1.142z"></path>
<path d="M24.794 28.54h-1.126v-1.142h1.126v1.142z"></path>
<path d="M23.668 28.54h-1.126v-1.142h1.126v1.142z"></path>
<path d="M20.29 28.54h-1.126v-1.142h1.126v1.142z"></path>
<path d="M19.164 28.54h-1.126v-1.142h1.126v1.142z"></path>
<path d="M16.913 28.54h-1.126v-1.142h1.126v1.142z"></path>
<path d="M15.786 28.54h-1.126v-1.142h1.126v1.142z"></path>
<path d="M12.408 28.54h-1.126v-1.142h1.126v1.142z"></path>
<path d="M11.282 28.54h-1.126v-1.142h1.126v1.142z"></path>
<path d="M10.156 28.54h-1.126v-1.142h1.126v1.142z"></path>
<path d="M4.526 28.54h-1.126v-1.142h1.126v1.142z"></path>
<path d="M3.4 28.54h-1.126v-1.142h1.126v1.142z"></path>
<path d="M2.274 28.54h-1.126v-1.142h1.126v1.142z"></path>
<path d="M34.928 27.398h-1.126v-1.142h1.126v1.142z"></path>
<path d="M33.802 27.398h-1.126v-1.142h1.126v1.142z"></path>
<path d="M32.676 27.398h-1.126v-1.142h1.126v1.142z"></path>
<path d="M24.794 27.398h-1.126v-1.142h1.126v1.142z"></path>
<path d="M23.668 27.398h-1.126v-1.142h1.126v1.142z"></path>
<path d="M22.542 27.398h-1.126v-1.142h1.126v1.142z"></path>
<path d="M19.164 27.398h-1.126v-1.142h1.126v1.142z"></path>
<path d="M16.913 27.398h-1.126v-1.142h1.126v1.142z"></path>
<path d="M13.534 27.398h-1.126v-1.142h1.126v1.142z"></path>
<path d="M12.408 27.398h-1.126v-1.142h1.126v1.142z"></path>
<path d="M11.282 27.398h-1.126v-1.142h1.126v1.142z"></path>
<path d="M3.4 27.398h-1.126v-1.142h1.126v1.142z"></path>
<path d="M2.274 27.398h-1.126v-1.142h1.126v1.142z"></path>
<path d="M1.148 27.398h-1.126v-1.142h1.126v1.142z"></path>
<path d="M34.928 26.256h-1.126v-1.142h1.126v1.142z"></path>
<path d="M33.802 26.256h-1.126v-1.142h1.126v1.142z"></path>
<path d="M23.668 26.256h-1.126v-1.142h1.126v1.142z"></path>
<path d="M22.542 26.256h-1.126v-1.142h1.126v1.142z"></path>
<path d="M21.416 26.256h-1.126v-1.142h1.126v1.142z"></path>
<path d="M14.66 26.256h-1.126v-1.142h1.126v1.142z"></path>
<path d="M13.534 26.256h-1.126v-1.142h1.126v1.142z"></path>
<path d="M12.408 26.256h-1.126v-1.142h1.126v1.142z"></path>
<path d="M2.274 26.256h-1.126v-1.142h1.126v1.142z"></path>
<path d="M1.148 26.256h-1.126v-1.142h1.126v1.142z"></path>
<path d="M34.928 25.115h-1.126v-1.142h1.126v1.142z"></path>
<path d="M29.298 25.115h-1.126v-1.142h1.126v1.142z"></path>
<path d="M19.164 25.115h-1.126v-1.142h1.126v1.142z"></path>
<path d="M16.913 25.115h-1.126v-1.142h1.126v1.142z"></path>
<path d="M6.778 25.115h-1.126v-1.142h1.126v1.142z"></path>
<path d="M1.148 25.115h-1.126v-1.142h1.126v1.142z"></path>
<path d="M29.298 23.973h-1.126v-1.142h1.126v1.142z"></path>
<path d="M28.172 23.973h-1.126v-1.142h1.126v1.142z"></path>
<path d="M20.29 23.973h-1.126v-1.142h1.126v1.142z"></path>
<path d="M19.164 23.973h-1.126v-1.142h1.126v1.142z"></path>
<path d="M16.913 23.973h-1.126v-1.142h1.126v1.142z"></path>
<path d="M15.786 23.973h-1.126v-1.142h1.126v1.142z"></path>
<path d="M7.904 23.973h-1.126v-1.142h1.126v1.142z"></path>
<path d="M6.778 23.973h-1.126v-1.142h1.126v1.142z"></path>
<path d="M29.298 22.832h-1.126v-1.142h1.126v1.142z"></path>
<path d="M28.172 22.832h-1.126v-1.142h1.126v1.142z"></path>
<path d="M27.046 22.832h-1.126v-1.142h1.126v1.142z"></path>
<path d="M21.416 22.832h-1.126v-1.142h1.126v1.142z"></path>
<path d="M20.29 22.832h-1.126v-1.142h1.126v1.142z"></path>
<path d="M15.786 22.832h-1.126v-1.142h1.126v1.142z"></path>
<path d="M14.66 22.832h-1.126v-1.142h1.126v1.142z"></path>
<path d="M9.030 22.832h-1.126v-1.142h1.126v1.142z"></path>
<path d="M7.904 22.832h-1.126v-1.142h1.126v1.142z"></path>
<path d="M6.778 22.832h-1.126v-1.142h1.126v1.142z"></path>
<path d="M28.172 21.69h-1.126v-1.142h1.126v1.142z"></path>
<path d="M27.046 21.69h-1.126v-1.142h1.126v1.142z"></path>
<path d="M22.542 21.69h-1.126v-1.142h1.126v1.142z"></path>
<path d="M21.416 21.69h-1.126v-1.142h1.126v1.142z"></path>
<path d="M14.66 21.69h-1.126v-1.142h1.126v1.142z"></path>
<path d="M13.534 21.69h-1.126v-1.142h1.126v1.142z"></path>
<path d="M9.030 21.69h-1.126v-1.142h1.126v1.142z"></path>
<path d="M7.904 21.69h-1.126v-1.142h1.126v1.142z"></path>
<path d="M32.676 20.549h-1.126v-1.142h1.126v1.142z"></path>
<path d="M31.55 20.549h-1.126v-1.142h1.126v1.142z"></path>
<path d="M30.424 20.549h-1.126v-1.142h1.126v1.142z"></path>
<path d="M27.046 20.549h-1.126v-1.142h1.126v1.142z"></path>
<path d="M23.668 20.549h-1.126v-1.142h1.126v1.142z"></path>
<path d="M22.542 20.549h-1.126v-1.142h1.126v1.142z"></path>
<path d="M13.534 20.549h-1.126v-1.142h1.126v1.142z"></path>
<path d="M12.408 20.549h-1.126v-1.142h1.126v1.142z"></path>
<path d="M9.030 20.549h-1.126v-1.142h1.126v1.142z"></path>
<path d="M5.652 20.549h-1.126v-1.142h1.126v1.142z"></path>
<path d="M4.526 20.549h-1.126v-1.142h1.126v1.142z"></path>
<path d="M3.4 20.549h-1.126v-1.142h1.126v1.142z"></path>
<path d="M36.054 19.407h-1.126v-1.142h1.126v1.142z"></path>
<path d="M31.55 19.407h-1.126v-1.142h1.126v1.142z"></path>
<path d="M30.424 19.407h-1.126v-1.142h1.126v1.142z"></path>
<path d="M29.298 19.407h-1.126v-1.142h1.126v1.142z"></path>
<path d="M24.794 19.407h-1.126v-1.142h1.126v1.142z"></path>
<path d="M23.668 19.407h-1.126v-1.142h1.126v1.142z"></path>
<path d="M12.408 19.407h-1.126v-1.142h1.126v1.142z"></path>
<path d="M11.282 19.407h-1.126v-1.142h1.126v1.142z"></path>
<path d="M6.778 19.407h-1.126v-1.142h1.126v1.142z"></path>
<path d="M5.652 19.407h-1.126v-1.142h1.126v1.142z"></path>
<path d="M4.526 19.407h-1.126v-1.142h1.126v1.142z"></path>
<path d="M36.054 18.265h-1.126v-1.142h1.126v1.142z"></path>
<path d="M34.928 18.265h-1.126v-1.142h1.126v1.142z"></path>
<path d="M30.424 18.265h-1.126v-1.142h1.126v1.142z"></path>
<path d="M29.298 18.265h-1.126v-1.142h1.126v1.142z"></path>
<path d="M28.172 18.265h-1.126v-1.142h1.126v1.142z"></path>
<path d="M25.92 18.265h-1.126v-1.142h1.126v1.142z"></path>
<path d="M24.794 18.265h-1.126v-1.142h1.126v1.142z"></path>
<path d="M18.038 18.265h-1.126v-1.142h1.126v1.142z"></path>
<path d="M11.282 18.265h-1.126v-1.142h1.126v1.142z"></path>
<path d="M10.156 18.265h-1.126v-1.142h1.126v1.142z"></path>
<path d="M7.904 18.265h-1.126v-1.142h1.126v1.142z"></path>
<path d="M6.778 18.265h-1.126v-1.142h1.126v1.142z"></path>
<path d="M5.652 18.265h-1.126v-1.142h1.126v1.142z"></path>
<path d="M1.126 17.124h-1.126v-1.142h1.126v1.142z"></path>
<path d="M2.274 17.124h-1.126v-1.142h1.126v1.142z"></path>
<path d="M1.126 18.265h-1.126v-1.142h1.126v1.142z"></path>
<path d="M1.126 15.982h-1.126v-1.142h1.126v1.142z"></path>
<path d="M36.054 17.124h-1.126v-1.142h1.126v1.142z"></path>
<path d="M34.928 17.124h-1.126v-1.142h1.126v1.142z"></path>
<path d="M33.802 17.124h-1.126v-1.142h1.126v1.142z"></path>
<path d="M19.164 17.124h-1.126v-1.142h1.126v1.142z"></path>
<path d="M18.038 17.124h-1.126v-1.142h1.126v1.142z"></path>
<path d="M16.913 17.124h-1.126v-1.142h1.126v1.142z"></path>
<path d="M36.054 15.982h-1.126v-1.142h1.126v1.142z"></path>
<path d="M34.928 15.982h-1.126v-1.142h1.126v1.142z"></path>
<path d="M30.424 15.982h-1.126v-1.142h1.126v1.142z"></path>
<path d="M29.298 15.982h-1.126v-1.142h1.126v1.142z"></path>
<path d="M28.172 15.982h-1.126v-1.142h1.126v1.142z"></path>
<path d="M25.92 15.982h-1.126v-1.142h1.126v1.142z"></path>
<path d="M24.794 15.982h-1.126v-1.142h1.126v1.142z"></path>
<path d="M18.038 15.982h-1.126v-1.142h1.126v1.142z"></path>
<path d="M11.282 15.982h-1.126v-1.142h1.126v1.142z"></path>
<path d="M10.156 15.982h-1.126v-1.142h1.126v1.142z"></path>
<path d="M7.904 15.982h-1.126v-1.142h1.126v1.142z"></path>
<path d="M6.778 15.982h-1.126v-1.142h1.126v1.142z"></path>
<path d="M5.652 15.982h-1.126v-1.142h1.126v1.142z"></path>
<path d="M36.054 14.841h-1.126v-1.142h1.126v1.142z"></path>
<path d="M31.55 14.841h-1.126v-1.142h1.126v1.142z"></path>
<path d="M30.424 14.841h-1.126v-1.142h1.126v1.142z"></path>
<path d="M29.298 14.841h-1.126v-1.142h1.126v1.142z"></path>
<path d="M24.794 14.841h-1.126v-1.142h1.126v1.142z"></path>
<path d="M23.668 14.841h-1.126v-1.142h1.126v1.142z"></path>
<path d="M12.408 14.841h-1.126v-1.142h1.126v1.142z"></path>
<path d="M11.282 14.841h-1.126v-1.142h1.126v1.142z"></path>
<path d="M6.778 14.841h-1.126v-1.142h1.126v1.142z"></path>
<path d="M5.652 14.841h-1.126v-1.142h1.126v1.142z"></path>
<path d="M4.526 14.841h-1.126v-1.142h1.126v1.142z"></path>
<path d="M32.676 13.699h-1.126v-1.142h1.126v1.142z"></path>
<path d="M31.55 13.699h-1.126v-1.142h1.126v1.142z"></path>
<path d="M30.424 13.699h-1.126v-1.142h1.126v1.142z"></path>
<path d="M27.046 13.699h-1.126v-1.142h1.126v1.142z"></path>
<path d="M23.668 13.699h-1.126v-1.142h1.126v1.142z"></path>
<path d="M22.542 13.699h-1.126v-1.142h1.126v1.142z"></path>
<path d="M13.534 13.699h-1.126v-1.142h1.126v1.142z"></path>
<path d="M12.408 13.699h-1.126v-1.142h1.126v1.142z"></path>
<path d="M9.030 13.699h-1.126v-1.142h1.126v1.142z"></path>
<path d="M5.652 13.699h-1.126v-1.142h1.126v1.142z"></path>
<path d="M4.526 13.699h-1.126v-1.142h1.126v1.142z"></path>
<path d="M3.4 13.699h-1.126v-1.142h1.126v1.142z"></path>
<path d="M28.172 12.557h-1.126v-1.142h1.126v1.142z"></path>
<path d="M27.046 12.557h-1.126v-1.142h1.126v1.142z"></path>
<path d="M22.542 12.557h-1.126v-1.142h1.126v1.142z"></path>
<path d="M21.416 12.557h-1.126v-1.142h1.126v1.142z"></path>
<path d="M14.66 12.557h-1.126v-1.142h1.126v1.142z"></path>
<path d="M13.534 12.557h-1.126v-1.142h1.126v1.142z"></path>
<path d="M9.030 12.557h-1.126v-1.142h1.126v1.142z"></path>
<path d="M7.904 12.557h-1.126v-1.142h1.126v1.142z"></path>
<path d="M29.298 11.416h-1.126v-1.142h1.126v1.142z"></path>
<path d="M28.172 11.416h-1.126v-1.142h1.126v1.142z"></path>
<path d="M27.046 11.416h-1.126v-1.142h1.126v1.142z"></path>
<path d="M21.416 11.416h-1.126v-1.142h1.126v1.142z"></path>
<path d="M20.29 11.416h-1.126v-1.142h1.126v1.142z"></path>
<path d="M15.786 11.416h-1.126v-1.142h1.126v1.142z"></path>
<path d="M14.66 11.416h-1.126v-1.142h1.126v1.142z"></path>
<path d="M9.030 11.416h-1.126v-1.142h1.126v1.142z"></path>
<path d="M7.904 11.416h-1.126v-1.142h1.126v1.142z"></path>
<path d="M6.778 11.416h-1.126v-1.142h1.126v1.142z"></path>
<path d="M29.298 10.274h-1.126v-1.142h1.126v1.142z"></path>
<path d="M28.172 10.274h-1.126v-1.142h1.126v1.142z"></path>
<path d="M20.29 10.274h-1.126v-1.142h1.126v1.142z"></path>
<path d="M19.164 10.274h-1.126v-1.142h1.126v1.142z"></path>
<path d="M16.913 10.274h-1.126v-1.142h1.126v1.142z"></path>
<path d="M15.786 10.274h-1.126v-1.142h1.126v1.142z"></path>
<path d="M7.904 10.274h-1.126v-1.142h1.126v1.142z"></path>
<path d="M6.778 10.274h-1.126v-1.142h1.126v1.142z"></path>
<path d="M29.298 9.133h-1.126v-1.142h1.126v1.142z"></path>
<path d="M19.164 9.133h-1.126v-1.142h1.126v1.142z"></path>
<path d="M16.913 9.133h-1.126v-1.142h1.126v1.142z"></path>
<path d="M6.778 9.133h-1.126v-1.142h1.126v1.142z"></path>
<path d="M34.928 7.991h-1.126v-1.142h1.126v1.142z"></path>
<path d="M1.148 7.991h-1.126v-1.142h1.126v1.142z"></path>
<path d="M34.928 6.849h-1.126v-1.142h1.126v1.142z"></path>
<path d="M33.802 6.849h-1.126v-1.142h1.126v1.142z"></path>
<path d="M23.668 6.849h-1.126v-1.142h1.126v1.142z"></path>
<path d="M22.542 6.849h-1.126v-1.142h1.126v1.142z"></path>
<path d="M21.416 6.849h-1.126v-1.142h1.126v1.142z"></path>
<path d="M14.66 6.849h-1.126v-1.142h1.126v1.142z"></path>
<path d="M13.534 6.849h-1.126v-1.142h1.126v1.142z"></path>
<path d="M12.408 6.849h-1.126v-1.142h1.126v1.142z"></path>
<path d="M2.274 6.849h-1.126v-1.142h1.126v1.142z"></path>
<path d="M1.148 6.849h-1.126v-1.142h1.126v1.142z"></path>
<path d="M34.928 5.708h-1.126v-1.142h1.126v1.142z"></path>
<path d="M33.802 5.708h-1.126v-1.142h1.126v1.142z"></path>
<path d="M32.676 5.708h-1.126v-1.142h1.126v1.142z"></path>
<path d="M24.794 5.708h-1.126v-1.142h1.126v1.142z"></path>
<path d="M23.668 5.708h-1.126v-1.142h1.126v1.142z"></path>
<path d="M22.542 5.708h-1.126v-1.142h1.126v1.142z"></path>
<path d="M19.164 5.708h-1.126v-1.142h1.126v1.142z"></path>
<path d="M16.913 5.708h-1.126v-1.142h1.126v1.142z"></path>
<path d="M13.534 5.708h-1.126v-1.142h1.126v1.142z"></path>
<path d="M12.408 5.708h-1.126v-1.142h1.126v1.142z"></path>
<path d="M11.282 5.708h-1.126v-1.142h1.126v1.142z"></path>
<path d="M3.4 5.708h-1.126v-1.142h1.126v1.142z"></path>
<path d="M2.274 5.708h-1.126v-1.142h1.126v1.142z"></path>
<path d="M1.148 5.708h-1.126v-1.142h1.126v1.142z"></path>
<path d="M33.802 4.566h-1.126v-1.142h1.126v1.142z"></path>
<path d="M32.676 4.566h-1.126v-1.142h1.126v1.142z"></path>
<path d="M31.55 4.566h-1.126v-1.142h1.126v1.142z"></path>
<path d="M25.92 4.566h-1.126v-1.142h1.126v1.142z"></path>
<path d="M24.794 4.566h-1.126v-1.142h1.126v1.142z"></path>
<path d="M23.668 4.566h-1.126v-1.142h1.126v1.142z"></path>
<path d="M20.29 4.566h-1.126v-1.142h1.126v1.142z"></path>
<path d="M19.164 4.566h-1.126v-1.142h1.126v1.142z"></path>
<path d="M16.913 4.566h-1.126v-1.142h1.126v1.142z"></path>
<path d="M15.786 4.566h-1.126v-1.142h1.126v1.142z"></path>
<path d="M12.408 4.566h-1.126v-1.142h1.126v1.142z"></path>
<path d="M11.282 4.566h-1.126v-1.142h1.126v1.142z"></path>
<path d="M10.156 4.566h-1.126v-1.142h1.126v1.142z"></path>
<path d="M4.526 4.566h-1.126v-1.142h1.126v1.142z"></path>
<path d="M3.4 4.566h-1.126v-1.142h1.126v1.142z"></path>
<path d="M2.274 4.566h-1.126v-1.142h1.126v1.142z"></path>
<path d="M32.676 3.425h-1.126v-1.142h1.126v1.142z"></path>
<path d="M31.55 3.425h-1.126v-1.142h1.126v1.142z"></path>
<path d="M30.424 3.425h-1.126v-1.142h1.126v1.142z"></path>
<path d="M21.416 3.425h-1.126v-1.142h1.126v1.142z"></path>
<path d="M20.29 3.425h-1.126v-1.142h1.126v1.142z"></path>
<path d="M19.164 3.425h-1.126v-1.142h1.126v1.142z"></path>
<path d="M16.913 3.425h-1.126v-1.142h1.126v1.142z"></path>
<path d="M15.786 3.425h-1.126v-1.142h1.126v1.142z"></path>
<path d="M14.66 3.425h-1.126v-1.142h1.126v1.142z"></path>
<path d="M5.652 3.425h-1.126v-1.142h1.126v1.142z"></path>
<path d="M4.526 3.425h-1.126v-1.142h1.126v1.142z"></path>
<path d="M3.4 3.425h-1.126v-1.142h1.126v1.142z"></path>
<path d="M36.054 2.283h-1.126v-1.142h1.126v1.142z"></path>
<path d="M31.55 2.283h-1.126v-1.142h1.126v1.142z"></path>
<path d="M30.424 2.283h-1.126v-1.142h1.126v1.142z"></path>
<path d="M29.298 2.283h-1.126v-1.142h1.126v1.142z"></path>
<path d="M21.416 2.283h-1.126v-1.142h1.126v1.142z"></path>
<path d="M20.29 2.283h-1.126v-1.142h1.126v1.142z"></path>
<path d="M15.786 2.283h-1.126v-1.142h1.126v1.142z"></path>
<path d="M14.66 2.283h-1.126v-1.142h1.126v1.142z"></path>
<path d="M6.778 2.283h-1.126v-1.142h1.126v1.142z"></path>
<path d="M5.652 2.283h-1.126v-1.142h1.126v1.142z"></path>
<path d="M4.526 2.283h-1.126v-1.142h1.126v1.142z"></path>
<path d="M36.054 1.142h-1.126v-1.142h1.126v1.142z"></path>
<path d="M34.928 1.142h-1.126v-1.142h1.126v1.142z"></path>
<path d="M30.424 1.142h-1.126v-1.142h1.126v1.142z"></path>
<path d="M29.298 1.142h-1.126v-1.142h1.126v1.142z"></path>
<path d="M28.172 1.142h-1.126v-1.142h1.126v1.142z"></path>
<path d="M21.416 1.142h-1.126v-1.142h1.126v1.142z"></path>
<path d="M14.66 1.142h-1.126v-1.142h1.126v1.142z"></path>
<path d="M7.904 1.142h-1.126v-1.142h1.126v1.142z"></path>
<path d="M6.778 1.142h-1.126v-1.142h1.126v1.142z"></path>
<path d="M5.652 1.142h-1.126v-1.142h1.126v1.142z"></path>
<path d="M1.148 1.142h-1.126v-1.142h1.126v1.142z"></path>
</symbol>
<symbol id="icon-facebook" viewBox="0 0 32 32">
<path d="M19.52 4.64c0.24 0 0.48 0 0.96 0v3.6c-0.24 0-0.72 0-1.2 0s-0.96 0-1.2 0.24c-0.24 0.24-0.24 0.48-0.24 1.040 0 0.48 0 0.8 0 1.28h2.64v3.040h-2.64v13.2h-4.080v-13.28h-2.16v-3.040h2.16v-1.040c0-1.76 0.24-3.040 0.72-3.6 0.72-1.040 2.16-1.52 4.32-1.52 0.24 0.080 0.48 0.080 0.72 0.080z"></path>
</symbol>
<symbol id="icon-instagram" viewBox="0 0 32 32">
<path d="M28.717 10.756c-0.016-1.074-0.215-2.14-0.596-3.145-0.667-1.716-2.024-3.073-3.743-3.737-0.994-0.373-2.044-0.573-3.108-0.596-1.368-0.061-1.801-0.078-5.273-0.078s-3.917 0-5.274 0.078c-1.062 0.023-2.112 0.223-3.106 0.596-1.719 0.664-3.078 2.021-3.743 3.737-0.374 0.992-0.576 2.041-0.596 3.101-0.061 1.367-0.080 1.8-0.080 5.265s0 3.909 0.080 5.265c0.021 1.062 0.222 2.109 0.596 3.104 0.667 1.714 2.024 3.071 3.744 3.735 0.989 0.386 2.040 0.605 3.106 0.639 1.369 0.061 1.803 0.080 5.274 0.080s3.916 0 5.274-0.080c1.062-0.021 2.113-0.221 3.108-0.595 1.719-0.666 3.076-2.022 3.743-3.737 0.374-0.994 0.574-2.041 0.596-3.104 0.061-1.365 0.080-1.798 0.080-5.265-0.003-3.466-0.003-3.906-0.082-5.264zM15.99 22.531c-3.631 0-6.572-2.936-6.572-6.561s2.941-6.561 6.572-6.561c3.628 0 6.572 2.936 6.572 6.561s-2.944 6.561-6.572 6.561zM22.823 10.696c-0.849 0-1.532-0.684-1.532-1.53s0.684-1.53 1.532-1.53c0.846 0 1.531 0.684 1.531 1.53s-0.685 1.53-1.531 1.53z"></path>
<path d="M15.992 19.976c2.211 0 4.004-1.793 4.004-4.004s-1.793-4.004-4.004-4.004c-2.211 0-4.004 1.793-4.004 4.004s1.793 4.004 4.004 4.004z"></path>
</symbol>
<symbol id="icon-youtube" viewBox="0 0 32 32">
<path d="M24.24 6c-1.36-0.080-4.16-0.16-8.4-0.16h-0.56c-4.080 0-6.8 0.080-8.16 0.24-1.84 0.16-3.12 0.64-3.84 1.28-0.64 0.56-1.12 1.6-1.28 2.96-0.080 0.88-0.16 2.72-0.16 5.52v0.4c0 2.64 0.080 4.48 0.24 5.36 0.24 1.28 0.64 2.24 1.44 2.8 0.8 0.64 2.16 1.040 4.080 1.2 1.36 0.080 4.16 0.16 8.4 0.16h0.56c4.080 0 6.8-0.080 8.16-0.24 1.84-0.16 3.12-0.64 3.84-1.28 0.64-0.56 1.12-1.6 1.28-2.96 0.080-0.88 0.16-2.72 0.16-5.52v-0.4c0-2.64-0.080-4.48-0.24-5.36-0.24-1.28-0.64-2.24-1.44-2.8-0.8-0.64-2.16-1.040-4.080-1.2zM21.12 15.84l-8.8 5.28v-10.56l8.8 5.28z"></path>
</symbol>
<symbol id="icon-burgger" viewBox="0 0 47 32">
<path stroke-linejoin="miter" stroke-linecap="round" stroke-miterlimit="4" stroke-width="3.2" d="M8.742 5.188h36.591"></path>
<path stroke-linejoin="miter" stroke-linecap="round" stroke-miterlimit="4" stroke-width="3.2" d="M8.742 24.582h36.591"></path>
<path stroke-linejoin="miter" stroke-linecap="round" stroke-miterlimit="4" stroke-width="3.2" d="M19.965 14.885h25.368"></path>
</symbol>
<symbol id="icon-arrow" viewBox="0 0 48 32">
<path d="M40.063 18.635c-0.261-1.955-0.43-3.7-0.506-5.235-0.033-1.56 0.026-2.91 0.178-4.050l-37.94 21.905-1.795-3.109 37.94-21.905c-1.092-0.488-2.305-1.137-3.639-1.945-1.291-0.834-2.704-1.827-4.238-2.981l2.278-1.315c4.813 2.024 9.215 3.036 13.206 3.035l0.769 1.332c-2.025 3.406-3.35 7.724-3.975 12.954l-2.278 1.315z"></path>
</symbol>
<symbol id="icon-star"  viewBox="0 0 49 49" >
<path d="M23.4679 0.501844C23.8523 -0.167309 24.8176 -0.167308 25.2021 0.501845L28.0196 5.40635C28.3101 5.91199 28.9699 6.06283 29.4512 5.73365L34.1685 2.50766C34.8078 2.07044 35.6801 2.49471 35.7308 3.26759L36.097 8.84509C36.1355 9.43219 36.6701 9.8593 37.2513 9.76726L42.9018 8.87236C43.6731 8.75021 44.2805 9.51961 43.9827 10.2414L41.8603 15.3858C41.6334 15.9358 41.9339 16.561 42.505 16.7273L47.949 18.3131C48.7035 18.5329 48.9213 19.497 48.3346 20.0198L44.1529 23.7459C43.7065 24.1436 43.7065 24.8414 44.1529 25.2391L48.3346 28.9652C48.9213 29.488 48.7035 30.4521 47.949 30.6719L42.505 32.2577C41.9339 32.424 41.6334 33.0492 41.8603 33.5991L43.9827 38.7435C44.2805 39.4654 43.6731 40.2348 42.9018 40.1126L37.2513 39.2177C36.6701 39.1257 36.1355 39.5528 36.097 40.1399L35.7308 45.7174C35.6801 46.4903 34.8078 46.9146 34.1685 46.4773L29.4512 43.2513C28.9699 42.9222 28.3101 43.073 28.0196 43.5786L25.2021 48.4831C24.8176 49.1523 23.8523 49.1523 23.4679 48.4831L20.6503 43.5786C20.3598 43.073 19.7001 42.9222 19.2187 43.2513L14.5014 46.4773C13.8621 46.9146 12.9898 46.4903 12.9391 45.7174L12.5729 40.1399C12.5344 39.5528 11.9998 39.1257 11.4186 39.2177L5.76807 40.1126C4.99684 40.2348 4.38943 39.4654 4.68723 38.7436L6.80966 33.5991C7.03655 33.0492 6.73606 32.424 6.16491 32.2577L0.720946 30.6719C-0.0335406 30.4521 -0.251371 29.488 0.335347 28.9652L4.51706 25.2391C4.96337 24.8414 4.96337 24.1436 4.51706 23.7459L0.335347 20.0198C-0.251371 19.497 -0.0335414 18.5329 0.720945 18.3131L6.16491 16.7273C6.73606 16.561 7.03655 15.9358 6.80966 15.3858L4.68723 10.2414C4.38943 9.51961 4.99684 8.75021 5.76807 8.87236L11.4186 9.76726C11.9998 9.8593 12.5344 9.43219 12.5729 8.84509L12.9391 3.26759C12.9898 2.49471 13.8621 2.07044 14.5014 2.50766L19.2187 5.73365C19.7001 6.06283 20.3598 5.91199 20.6503 5.40635L23.4679 0.501844Z" />
</symbol>

</defs>
</svg>
